<?xml version="1.0"?>
<svg version="1.1" xmlns="http://www.w3.org/2000/svg" width="400px" height="200px" style=""><path fill="#" d="M200.5,111.83c0,4.865-3.955,7.49-8.505,7.49c-2.1,0-4.585-0.385-6.685-1.12c-0.455-0.175-0.595-0.385-0.595-0.665c0-0.14,0-0.28,0.07-0.455l0.735-2.275c0.105-0.35,0.28-0.56,0.63-0.56c0.14,0,0.315,0.035,0.525,0.105c1.645,0.595,3.465,1.05,5.215,1.05c1.89,0,4.025-0.91,4.025-3.115c0-1.61-1.19-2.485-2.555-3.15l-4.55-2.275c-2.485-1.225-4.13-3.29-4.13-6.02c0-4.27,4.2-6.615,8.085-6.615c2.31,0,4.235,0.35,6.265,1.225c0.455,0.21,0.7,0.42,0.7,0.7c0,0.14-0.035,0.28-0.105,0.455l-0.84,2.135c-0.14,0.385-0.35,0.525-0.595,0.525c-0.175,0-0.35-0.07-0.56-0.14c-1.435-0.595-3.22-1.085-4.62-1.085c-1.645,0-3.535,0.7-3.535,2.66c0,1.435,1.33,2.275,2.485,2.835l3.885,1.89c2.765,1.33,4.655,3.185,4.655,6.405z M216.7575,117.85c0,0.35-0.175,0.525-0.525,0.665c-1.085,0.455-2.52,0.805-3.92,0.805c-1.785,0-3.325-0.455-4.2-1.47c-1.085-1.225-1.12-2.66-1.12-5.215l0-7.805l-1.645,0c-0.665,0-0.77-0.14-0.77-0.875l0-1.33c0-0.42,0.21-0.7,0.63-0.7l1.785,0l0-3.815c0-0.595,0.315-0.77,0.875-0.84l2.52-0.315l0.175,0c0.455,0,0.665,0.245,0.665,0.77l0,4.2l3.955,0c0.42,0,0.665,0.14,0.665,0.595l0,1.645c0,0.42-0.28,0.665-0.7,0.665l-3.92,0l0,8.015c0,1.05,0.07,1.82,0.455,2.38c0.315,0.455,0.805,0.735,1.645,0.735c0.875,0,1.61-0.21,2.24-0.42c0.14-0.035,0.245-0.07,0.35-0.07c0.245,0,0.385,0.14,0.455,0.42l0.35,1.75c0.035,0.105,0.035,0.14,0.035,0.21z M226.295,97.48c0,1.365-1.19,2.205-2.345,2.205s-2.38-0.77-2.38-2.17s1.155-2.24,2.38-2.24c1.19,0,2.345,0.805,2.345,2.205z M226.085,118.025c0,0.63-0.28,0.875-0.875,0.875l-2.45,0c-0.63,0-0.91-0.245-0.91-0.875l0-15.295c0-0.595,0.35-0.805,0.91-0.805l2.45,0c0.56,0,0.875,0.175,0.875,0.805l0,15.295z M246.9625,118.48c0,0.315-0.315,0.42-0.665,0.42l-3.01,0c-0.63,0-1.05-0.175-1.4-0.735l-4.48-7.35l-0.385,0.35l0,4.865l0,1.995c0,0.595-0.245,0.875-0.805,0.875l-2.625,0c-0.525,0-0.805-0.315-0.805-0.84l0-22.96c0-0.56,0.21-0.77,0.735-0.84l2.555-0.35c0.105,0,0.175-0.035,0.28-0.035c0.42,0,0.665,0.21,0.665,0.805l0,5.88l0,8.155l0.07,0l4.585-6.3c0.28-0.385,0.49-0.49,0.945-0.49l3.115,0c0.28,0,0.455,0.14,0.455,0.35c0,0.105-0.035,0.245-0.14,0.385l-5.005,6.3l5.67,8.855c0.14,0.21,0.245,0.455,0.245,0.665z M266.65,110.36c0,0.84-0.28,1.015-1.155,1.015l-10.255,0c0.28,2.695,2.24,4.55,5.005,4.55c1.47,0,3.01-0.35,4.305-0.84c0.14-0.035,0.245-0.105,0.385-0.105c0.245,0,0.42,0.14,0.49,0.42l0.49,1.785c0.035,0.175,0.07,0.315,0.07,0.42c0,0.245-0.14,0.42-0.56,0.595c-1.715,0.77-4.06,1.12-5.88,1.12c-5.495,0-8.75-3.5-8.75-8.96c0-5.25,3.465-8.89,8.68-8.89c2.135,0,3.885,0.805,5.11,2.1c1.61,1.68,2.065,3.885,2.065,6.265l0,0.525z M262.485,108.61l0-0.385c-0.07-1.82-1.12-3.5-3.255-3.5c-2.275,0-3.64,1.82-3.92,3.885l7.175,0z"/><path fill="#" d=""/></svg>
